<svg width="159" height="36" viewBox="0 0 159 36" fill="none" xmlns="http://www.w3.org/2000/svg">
<path d="M7.12891 33.9805C10 34.1758 12.9688 33.8437 16.0547 32.9844C19.1602 32.125 22.2266 30.914 25.2734 29.3711C31.3867 26.2656 36.8945 22.418 41.6406 18.1406C42.2461 17.6523 41.6406 17.2422 41.25 17.5547C38.2227 20.2695 34.7656 22.8086 30.918 25.1914C27.0703 27.5742 23.0859 29.5078 18.9453 30.9922C14.8242 32.4961 10.8984 33.1406 7.20703 32.9258C4.72656 32.6914 3.06641 32.0469 2.22656 30.9922C1.40625 29.9375 1.15235 28.668 1.46485 27.164C1.79688 25.6797 2.42188 24.1758 3.35938 22.6523C4.31641 21.1094 5.3125 19.7617 6.36719 18.5703C9.25781 15.3476 12.7344 12.3203 16.7773 9.48827C20.8398 6.65623 24.9023 4.48827 28.9453 2.96483C31.3867 2.08592 38.8477 0.0156097 40.3125 3.31639C40.7422 4.37108 40.625 5.50389 39.9805 6.6953C39.3359 7.8867 38.3984 8.99998 37.1289 10.0742C35.8789 11.1484 34.5508 12.0078 33.125 12.6914C31.7188 13.375 30.4688 13.7265 29.3555 13.7656C29.0625 13.7656 29.0039 13.6289 29.0039 13.4922C28.9648 13.3359 28.9258 13.1797 28.5156 13.2187C26.6992 13.375 27.1875 14.6445 27.8906 14.8008C29.3945 14.9765 31.0352 14.7226 32.7734 14.0195C34.5312 13.3164 36.1523 12.3398 37.6367 11.1094C39.1211 9.85936 40.2344 8.5117 40.957 7.04686C41.6992 5.58202 41.7969 4.1953 41.2695 2.84764C39.5117 -1.1172 31.7383 0.816391 28.7695 1.91014C24.5703 3.45311 20.3711 5.67967 16.1914 8.58983C12.0313 11.4805 8.45703 14.6055 5.50781 17.9648C4.27735 19.3515 3.1836 20.8945 2.20703 22.6133C1.23047 24.332 0.625002 26.0117 0.371095 27.6523C0.117189 29.3125 0.507814 30.7187 1.50391 31.8711C2.5 33.0234 4.375 33.7265 7.12891 33.9805Z" fill="hsl(37, 39%, 85%)"/>
<path d="M42.9492 21.3633C42.8516 21.4609 42.793 21.5781 42.7734 21.7539C42.7539 21.9297 42.6758 22.1445 42.5586 22.3789L42.1094 23.1015C42.0703 23.1601 42.0312 23.2383 41.9727 23.3164C41.543 24 40.8203 25.1914 41.4844 25.6601C41.7969 25.8555 42.4414 25.5625 43.4375 24.7617C44.4336 23.9609 45.5469 23.0039 46.7773 21.8515C47.8516 20.8359 48.8672 19.9375 49.8242 19.1562C50.7812 18.3555 51.5039 17.9062 52.0117 17.789C52.5195 17.6719 52.6367 18.1211 52.3828 19.1562C51.543 22.2226 51.7383 23.9219 52.9492 24.2539C54.0234 24.5859 55.625 23.8828 57.8906 22.457C58.3984 22.1055 58.0664 21.5976 57.6758 21.832C55.5469 23.082 54.082 23.6094 53.2812 23.3945C52.6758 23.2187 52.5391 21.9883 53.1641 19.5469C53.5938 18.0039 53.4375 17.125 52.6758 16.9297C52.1094 16.832 51.2891 17.125 50.2148 17.8281C49.1602 18.5117 48.0273 19.3906 46.7969 20.4453C45.5859 21.5 44.4531 22.5156 43.418 23.4922C42.5391 24.293 42.1484 24.5664 42.832 23.5703L43.9844 21.832C44.5117 21.3437 45.4102 20.4648 46.6602 19.1562C47.9102 17.8476 49.1992 16.3437 50.5469 14.625C51.8945 12.8867 52.9688 11.1484 53.7891 9.39061C54.2578 8.31639 55.9375 3.60936 53.0664 5.50389L43.5352 20.8164C43.2422 21.1094 43.0469 21.2851 42.9688 21.3437L42.9492 21.3633ZM48.457 14.918C48.5547 14.7617 48.7891 14.4297 49.1211 13.9023C50.8203 11.1875 55.0195 4.7617 52.2852 10.1133C51.3672 11.8125 50.2344 13.4726 48.8672 15.0547C46.8945 17.5351 46.7578 17.4765 48.457 14.918Z" fill="hsl(37, 39%, 85%)"/>
<path d="M62.6172 17.6914C61.8945 17.6719 61.0742 18.0039 60.1953 18.6875C59.3164 19.3515 58.5547 20.1328 57.8906 21.0117C57.2266 21.8906 56.8555 22.6523 56.7969 23.2969C56.7773 24.2539 57.1289 24.7812 57.8516 24.8984C58.5742 25.0156 59.4727 24.8984 60.5078 24.5273C61.543 24.1562 62.5391 23.7265 63.457 23.2383C64.3945 22.7305 65.0586 22.3398 65.4492 22.0664C66.4453 21.3437 65.8008 21.1484 65.3516 21.4414C65.1367 21.5781 64.6484 21.8515 63.8672 22.2422C63.0859 22.6133 62.2266 22.9844 61.2891 23.3555C60.3516 23.7265 59.5508 23.9414 58.8672 24C58.1836 24.0586 57.8516 23.8437 57.8516 23.3555C57.8906 23.0234 58.0469 22.6523 58.3008 22.2422C58.5742 21.8125 58.8086 21.4609 59.0234 21.207C59.3164 21.4805 59.8047 21.5 60.4492 21.2461C61.1133 20.9922 61.7578 20.6015 62.3633 20.0937C62.9688 19.5859 63.3594 19.0976 63.4961 18.6289C63.6328 18.1601 63.3398 17.8476 62.6172 17.6914ZM62.2266 18.7656C62.7148 18.6289 62.7148 18.707 62.4609 19C62.168 19.293 61.7578 19.625 61.2109 19.9961C60.6641 20.3476 60.1953 20.6015 59.8242 20.7383C58.3984 21.207 61.6406 18.9609 62.2266 18.7656Z" fill="hsl(37, 39%, 85%)"/>
<path d="M65.4883 24.4297C67.4219 24.0586 69.707 23.668 72.3828 23.2578C72.8906 23.1406 72.7148 22.6914 72.2266 22.7695C70.8984 22.9844 69.668 23.1601 68.5547 23.3164C67.5586 23.4531 66.6406 23.5898 65.7617 23.7265C65.7031 23.7461 65.6641 23.7461 65.6055 23.7461C65 23.8633 65.0391 23.8437 65.6641 22.75C65.8008 22.5351 65.9375 22.2617 66.1133 21.9687C66.2891 21.7148 66.4648 21.5195 66.6602 21.3437C66.7188 21.2851 66.7773 21.207 66.8359 21.1484C67.6172 20.3672 68.7109 19.1953 70.0977 17.6133C71.5039 16.0312 72.8125 14.332 74.0234 12.5351C75.2344 10.7383 75.9375 9.11717 76.1523 7.67186C75.8398 6.57811 74.9219 7.06639 74.4531 7.71092C72.832 9.89842 69.9414 14.2344 65.8008 20.7187C65.5859 20.8945 65.3906 21.1289 65.3906 21.4414C65.293 21.5976 65.1758 21.7539 65.0781 21.9297C64.7461 22.4375 64.4531 22.9453 64.1602 23.4336C63.8281 24.039 63.75 24.0586 62.9297 24.2148C55.7227 25.5234 54.0625 26.4023 54.2969 27.75C54.3945 28.3164 54.9805 28.8437 55.6641 29.3711C56.4453 29.9961 57.1289 30.6015 57.0703 31.2851C57.0508 31.3437 56.9727 31.4219 56.9141 31.4414C56.8164 31.5195 56.7383 31.5976 56.8945 31.6758C57.2656 31.7734 57.5195 31.4609 57.5977 31.1484C57.7734 30.4258 57.0703 29.7617 56.2695 29.1953C55.7031 28.7461 55.1953 28.2969 55.0977 27.8867C54.9805 27.5156 55.4492 27.1055 56.5234 26.6367C57.5977 26.168 59.6289 25.6211 62.6367 24.9961C63.2812 24.8398 63.3008 24.8984 63.0664 25.2305L62.9492 25.4062C62.0117 26.8711 61.1719 28.2187 60.4102 29.4297C59.6484 30.6601 58.7891 32.0078 57.8711 33.4726C57.7734 33.5703 57.6562 33.5703 57.5586 33.5703C57.3828 33.5312 57.207 33.5312 57.0898 33.9609C56.4648 35.5234 58.1055 35.3281 58.6719 34.0586C59.8047 32.2422 60.8398 30.543 61.7969 29C62.5195 27.8086 63.3203 26.5 64.1992 25.0937C64.4922 24.625 64.6875 24.5469 65.332 24.4492C65.3906 24.4492 65.4297 24.4492 65.4883 24.4297ZM70.918 14.4492C72.7148 11.7734 73.8672 10.1719 74.375 9.64452C74.9023 9.11717 74.8438 9.37108 74.2383 10.4062C73.6328 11.4414 72.5586 12.9453 70.9766 14.918C69.2383 17.1055 69.2188 16.9492 70.918 14.4492Z" fill="hsl(37, 39%, 85%)"/>
<path d="M83.1445 19.7617C83.5352 20.6992 84.5508 21.2461 86.2109 21.4023C87.8711 21.539 89.8047 21.4805 92.0117 21.207C94.2188 20.9336 96.3477 20.6211 98.3984 20.25C100.41 19.8984 101.992 19.6836 103.145 19.5859C103.496 19.5273 106.133 19.3906 106.191 19.918C106.172 20.3086 105.508 20.9531 104.16 21.8711C102.832 22.789 101.348 23.707 99.7266 24.664C98.1055 25.6211 96.8359 26.3437 95.918 26.8515C95.625 27.0078 95.4297 27.125 95.3125 27.1836C94.9805 27.3789 94.5703 27.6133 94.1016 27.8672C92.5586 28.707 90.8203 29.7031 88.9258 30.8555C87.0312 32.0078 85.6445 33.0625 84.7461 34C84.2773 34.5859 84.7266 35.0156 85.2344 34.4687C86.0742 33.5898 87.4219 32.6133 89.2578 31.539C91.0938 30.4648 92.8125 29.5273 94.4336 28.6875C95.0586 28.3555 95.6055 28.0625 96.0547 27.8086C96.2109 27.7305 96.4258 27.6133 96.7188 27.457C97.4414 27.0859 98.3789 26.5586 99.5312 25.8945C100.703 25.25 101.875 24.5469 103.066 23.7851C104.258 23.0234 105.234 22.2812 106.016 21.5781C106.797 20.8555 107.168 20.2695 107.109 19.7812C106.914 18.6289 104.434 18.6289 103.613 18.6484C102.227 18.707 100.137 18.9414 97.3633 19.3711C95.4297 19.664 93.4766 19.9375 91.5234 20.1719C89.5898 20.3867 87.9297 20.4844 86.543 20.4453C85.1758 20.3867 84.375 20.0937 84.1211 19.5469C83.8672 18.5703 84.5117 17.3398 86.0352 15.8359C87.5781 14.332 89.6289 12.789 92.207 11.207C94.8047 9.60545 97.5586 8.16014 100.469 6.85155C103.379 5.54295 106.094 4.60545 108.613 4.01952C111.133 3.43358 113.066 3.39452 114.453 3.92186C115.41 4.37108 115.742 4.99608 115.488 5.83592C115.234 6.65623 114.609 7.51561 113.613 8.43358C112.617 9.33202 111.504 10.1133 110.254 10.7969C109.023 11.4609 107.891 11.8711 106.895 12.0078C106.738 12.0078 106.758 11.9492 106.836 11.8515C106.855 11.832 106.855 11.8125 106.855 11.793C106.953 11.6172 106.875 11.5 106.777 11.3437C106.758 11.3242 106.758 11.2851 106.738 11.2656C106.035 10.1719 103.75 13.1797 105.742 13.1797C107.344 13.1406 108.945 12.7109 110.547 11.8906C112.168 11.0703 113.535 10.0742 114.668 8.90233C115.801 7.73045 116.445 6.59764 116.602 5.50389C116.758 4.39061 116.172 3.53123 114.863 2.92577C113.398 2.35936 111.348 2.37889 108.672 2.96483C106.016 3.53123 103.145 4.48827 100.078 5.81639C97.0117 7.12498 94.1016 8.62889 91.3867 10.3281C88.6719 12.0273 86.543 13.707 84.9609 15.3672C83.3984 17.0273 82.793 18.4922 83.1445 19.7617Z" fill="hsl(37, 39%, 85%)"/>
<path d="M111.074 21.3633C110.977 21.4609 110.918 21.5781 110.898 21.7539C110.879 21.9297 110.801 22.1445 110.684 22.3789L110.234 23.1015C110.195 23.1601 110.156 23.2383 110.098 23.3164C109.668 24 108.945 25.1914 109.609 25.6601C109.922 25.8555 110.566 25.5625 111.562 24.7617C112.559 23.9609 113.672 23.0039 114.902 21.8515C115.977 20.8359 116.992 19.9375 117.949 19.1562C118.906 18.3555 119.629 17.9062 120.137 17.789C120.645 17.6719 120.762 18.1211 120.508 19.1562C119.668 22.2226 119.863 23.9219 121.074 24.2539C122.148 24.5859 123.75 23.8828 126.016 22.457C126.523 22.1055 126.191 21.5976 125.801 21.832C123.672 23.082 122.207 23.6094 121.406 23.3945C120.801 23.2187 120.664 21.9883 121.289 19.5469C121.719 18.0039 121.562 17.125 120.801 16.9297C120.234 16.832 119.414 17.125 118.34 17.8281C117.285 18.5117 116.152 19.3906 114.922 20.4453C113.711 21.5 112.578 22.5156 111.543 23.4922C110.664 24.293 110.273 24.5664 110.957 23.5703L112.109 21.832C112.637 21.3437 113.535 20.4648 114.785 19.1562C116.035 17.8476 117.324 16.3437 118.672 14.625C120.02 12.8867 121.094 11.1484 121.914 9.39061C122.383 8.31639 124.062 3.60936 121.191 5.50389L111.66 20.8164C111.367 21.1094 111.172 21.2851 111.094 21.3437L111.074 21.3633ZM116.582 14.918C116.68 14.7617 116.914 14.4297 117.246 13.9023C118.945 11.1875 123.145 4.7617 120.41 10.1133C119.492 11.8125 118.359 13.4726 116.992 15.0547C115.02 17.5351 114.883 17.4765 116.582 14.918Z" fill="hsl(37, 39%, 85%)"/>
<path d="M135.898 21.3437C135.371 21.6367 134.746 21.8906 134.023 22.1055C133.301 22.3203 132.754 22.3008 132.363 22.0469C131.992 21.793 132.051 21.1484 132.539 20.0742C132.617 19.918 132.617 19.7617 132.52 19.6055C132.363 19.3711 132.09 19.332 131.855 19.4687C129.629 21.0117 128.027 22.0469 127.051 22.6133C126.074 23.1797 125.566 23.3945 125.508 23.2578C125.469 23.1211 125.762 22.7695 126.367 22.1836C126.973 21.5781 127.734 20.9531 128.613 20.289C129.492 19.625 130.332 19.1367 131.133 18.8242C131.934 18.5117 132.48 18.5703 132.812 19.0195C132.832 19.0781 132.793 19.1172 132.773 19.1758C132.754 19.2344 132.715 19.2734 132.715 19.332C132.852 19.5859 133.242 19.8203 133.496 19.7422C133.75 19.664 133.945 19.4297 133.867 19.1758C133.438 18.1797 132.695 17.75 131.641 17.9258C130.586 18.082 129.473 18.5508 128.32 19.3515C127.168 20.1523 126.23 20.9922 125.508 21.8711C124.785 22.75 124.512 23.3945 124.727 23.8047C124.902 24.0976 125.449 24.0976 126.387 23.7656C127.344 23.4336 128.828 22.6133 130.84 21.3047C131.211 21.0703 131.23 21.0508 131.211 21.4219V21.5195C131.23 22.3984 131.562 22.8867 132.168 23.0039C132.773 23.1015 133.477 23.0234 134.238 22.75C135.02 22.457 135.664 22.164 136.152 21.8711C136.777 21.4219 136.602 20.9726 135.898 21.3437Z" fill="hsl(37, 39%, 85%)"/>
<path d="M138.203 20.2305C139.004 19.1953 138.691 18.9219 138.281 18.8828C137.969 18.8242 137.461 19.039 137.207 19.4297C137.148 19.5273 137.09 19.625 137.031 19.7422C136.27 20.9531 134.727 23.414 136.211 24.4101C136.504 24.5664 136.875 24.6445 137.285 24.625C138.438 24.5273 139.629 24.0781 140.859 23.2773C142.09 22.4765 143.164 21.6758 144.082 20.875C144.219 20.7773 144.336 20.6797 144.434 20.582C144.453 20.5625 144.473 20.5625 144.492 20.543C145.273 19.8594 145.41 19.8398 145.273 20.7578C144.883 23.8633 147.871 23.414 150.586 22.0078C151.152 21.7344 151.152 21.1289 150.371 21.5195C147.969 22.5351 145.684 23.3555 146.484 19.918C146.621 19.4492 146.68 19.0586 146.66 18.7461C146.25 18.1015 144.922 18.9609 144.238 19.5664C144.102 19.664 143.965 19.7812 143.789 19.918C142.871 20.6797 141.797 21.5 140.527 22.3789C139.258 23.2578 138.125 23.7461 137.129 23.8437C135.879 23.8437 137.207 21.3047 137.871 20.4062C137.891 20.3281 138.008 20.3086 138.086 20.289C138.145 20.2695 138.184 20.25 138.203 20.2305Z" fill="hsl(37, 39%, 85%)"/>
<path d="M149.121 24.1172C148.965 24.664 149.414 24.9375 149.941 24.7031C150.645 24.332 151.719 23.4336 152.832 22.4375C154.102 21.2851 155.293 20.289 155.84 20.2305C155.664 21.3437 155.762 22.1445 156.133 22.6133C156.504 23.0625 157.285 22.9258 158.457 22.1836C158.809 21.9492 158.77 21.3633 158.242 21.6953C156.465 22.8867 156.504 22.0469 156.621 21.0508C156.68 20.6015 156.68 20.2109 156.621 19.8594C156.562 19.4883 156.289 19.3125 155.82 19.293C155.527 19.3125 155.02 19.5859 154.316 20.0742C153.633 20.5625 152.93 21.0898 152.227 21.6562C151.543 22.2226 151.035 22.6523 150.723 22.9453C151.172 22.1445 151.699 21.2461 152.285 20.25C152.891 19.2539 153.418 18.3555 153.906 17.5742C153.965 17.457 154.004 17.3398 154.004 17.2226V17.125C153.945 16.9492 153.828 16.8125 153.633 16.7539C153.535 16.7148 153.438 16.7148 153.32 16.7539L153.281 16.7734C153.125 16.8125 152.871 17.0078 152.539 17.3789C152.383 17.5547 152.383 17.8086 152.539 18.0234C152.344 18.3555 152.109 18.7265 151.836 19.1758C151.348 20.0156 150.84 20.875 150.312 21.793C149.785 22.7109 149.375 23.4726 149.121 24.1172Z" fill="hsl(37, 39%, 85%)"/>
</svg>
