<svg width="194" height="43" viewBox="0 0 194 43" fill="none" xmlns="http://www.w3.org/2000/svg">
<path d="M2.1875 22.3086C2.61719 22.5234 2.89063 22.4453 3.02735 22.1133C3.16407 21.7812 3.00782 21.3516 2.59766 20.8633C2.44141 20.707 2.22657 20.6484 2.01172 20.7461C1.875 20.7852 1.69922 20.3945 1.66016 20.2773C1.3086 19.2617 1.5625 18.0117 2.40235 16.5469C3.26172 15.082 4.47266 13.5586 6.01563 11.9961C7.5586 10.4336 9.19922 9.00781 10.9375 7.69921C12.6758 6.39062 14.2383 5.41406 15.625 4.73046C17.0313 4.04687 18.0078 3.83203 18.5547 4.10546C18.8477 4.33984 18.8672 4.82812 18.6133 5.55078C18.3594 6.27343 18.0469 6.97656 17.6563 7.69921C17.2852 8.42187 17.0117 8.89062 16.875 9.10546L9.72657 20.7461C9.70703 20.7852 9.66797 20.8437 9.62891 20.9023C9.39453 21.2734 9.08203 21.8398 8.69141 22.582C8.30078 23.3242 7.98828 24.0469 7.75391 24.7305C7.53907 25.4141 7.5586 25.8633 7.85157 26.0781C8.39844 26.4492 10.2344 24.3008 10.5664 23.9102C10.9766 23.4219 11.582 22.6797 12.3828 21.6641C13.418 20.3555 14.6484 18.8516 16.0352 17.1523C17.4219 15.4531 18.8281 13.793 20.2539 12.1914C21.6797 10.5898 22.9492 9.30078 24.0625 8.30468C25.1758 7.30859 25.957 6.85937 26.4063 6.99609C26.8359 7.21093 26.9141 7.85546 26.6211 8.92968C26.3281 10.0039 25.918 11.2344 25.3516 12.6602C24.1211 15.9609 22.793 19.5742 24.3359 20.1797C24.9219 20.3555 25.8398 20.1016 27.0898 19.3789C28.3398 18.6562 29.7461 17.6992 31.2891 16.5078C32.8516 15.3164 34.375 14.0664 35.8789 12.7969C37.3828 11.5273 38.6719 10.4141 39.7461 9.45703C40.5469 8.73437 41.1523 8.20703 41.5234 7.89453C41.875 7.60156 44.4336 5.53124 44.8438 5.68749C45.2539 5.88281 42.9688 9.59374 42.5977 10.1406C42.5781 10.1602 42.5781 10.1797 42.5586 10.1992C42.1289 10.8828 41.4258 11.918 40.4492 13.3437C39.2969 15.043 37.9688 16.9961 36.4844 19.2422C35 21.4883 33.5938 23.7148 32.2656 25.9414C30.9375 28.1484 29.9219 30.082 29.2188 31.7031C28.5352 33.3437 28.3789 34.418 28.7695 34.9062C29.2188 35.2969 29.9219 35.1602 30.4102 34.9844C31.1523 34.7891 30.8203 34.1055 30.2734 34.3008C30.2344 34.3008 30.1953 34.3008 30.1758 34.3203C29.707 34.4961 29.3359 34.5742 29.3945 33.9297C29.4922 33.1484 30.0586 31.8789 31.0547 30.1211C32.0508 28.3633 33.2813 26.3711 34.7266 24.1445C36.1914 21.8984 37.6563 19.6914 39.1211 17.5234C41.4063 14.1641 43.0664 11.5859 44.1406 9.78906C44.1602 9.74999 44.1797 9.71093 44.2188 9.65234C44.4336 9.28124 44.7461 8.73437 45.1172 7.99218C45.4883 7.24999 45.7617 6.54687 45.918 5.86328C46.0938 5.17968 45.9766 4.73046 45.5664 4.51562C44.8047 4.10546 42.5195 5.76562 41.7188 6.41015C41.6602 6.44921 41.6016 6.48828 41.5625 6.52734C41.0547 6.93749 40.0781 7.75781 38.6523 8.98828C37.0703 10.375 35.2734 11.8984 33.2813 13.5586C31.3086 15.2187 29.4922 16.6445 27.8711 17.8359C26.25 19.0078 25.1758 19.5352 24.668 19.4375C24.4727 19.3203 24.4922 18.8711 24.707 18.0703C24.9414 17.2695 25.2734 16.2734 25.6836 15.1016C26.9727 11.4297 28.6719 6.72265 26.7969 5.99999C26.0742 5.80468 24.9805 6.33203 23.4961 7.60156C22.0313 8.85156 20.4297 10.4336 18.7109 12.3477C17.0117 14.2422 15.4297 16.0781 14.0039 17.8359C12.5781 19.5937 11.5625 20.8828 10.9375 21.7031C10.8398 21.8398 10.7227 21.957 10.625 22.0937C8.82813 24.457 8.57422 24.6133 9.88282 22.5625C10.0977 22.1914 10.3516 21.7812 10.6445 21.293L17.793 9.65234C18.0469 9.24218 18.3984 8.61718 18.8086 7.79687C19.2383 6.97656 19.5117 6.15624 19.6484 5.33593C19.7852 4.51562 19.5703 3.91015 19.0039 3.49999C18.2617 3.10937 17.1094 3.24609 15.5469 3.91015C13.9844 4.55468 12.2656 5.57031 10.3906 6.91796C8.53516 8.26562 6.77735 9.76953 5.13672 11.4297C3.4961 13.0898 2.22657 14.7305 1.32813 16.3516C0.449222 17.9727 0.195316 19.3789 0.605472 20.5898C0.917972 21.3516 1.44532 21.9375 2.1875 22.3086Z" fill="black"/>
<path d="M43.5156 26.3516C43.8867 25.9609 44.3359 25.2383 44.5898 24.7695C44.7461 24.457 44.9023 24.4766 45.0781 24.6328C45.332 24.8086 45.8203 25.0234 46.8164 24.6328C47.7539 24.2031 47.5977 23.4609 47.0898 23.9297C46.5234 24.457 45.1953 24.4961 45.1172 23.3047C45.0781 21.6641 43.5938 21.293 43.3008 21.8984C43.0859 22.5234 43.5352 23.4023 44.0039 23.8711C44.1406 23.9687 44.1211 24.0469 44.043 24.1445C44.0234 24.1836 43.9844 24.2422 43.9453 24.3008C43.5352 25.1406 42.793 26.1367 42.2656 26.4492C40.6445 27.3477 39.2383 25.4336 43.0469 21.0391C43.125 20.9414 43.2227 20.9414 43.3203 20.9414C43.5352 20.9609 43.8477 20.9023 44.3945 20.3359C44.6875 19.6133 44.2969 19.3594 43.6914 19.5742C43.3203 19.6719 42.832 20.0625 42.2266 20.7266C40.625 22.582 39.8047 24.1055 39.7852 25.2578C39.7656 26.4102 40.1367 27.0937 40.9375 27.3281C41.7383 27.5625 42.5977 27.2305 43.5156 26.3516Z" fill="black"/>
<path d="M50.3516 17.7187C50.6055 18.0117 50.7813 18.2852 50.5273 18.6562C50.2344 18.9883 50.0586 19.1445 49.9609 19.1641C49.8633 19.1836 49.8047 19.2422 49.7656 19.3789C49.6875 19.7891 50.0781 20.2969 50.7227 19.4961C50.8789 19.3203 51.2695 18.7148 51.4453 18.6953C51.543 18.6758 51.6602 18.6953 51.7969 18.793C51.8164 18.8125 51.8359 18.8125 51.8555 18.832C52.5 19.1836 52.9688 19.5547 53.2813 19.9453C53.5938 20.3164 53.5352 20.8242 53.0859 21.4297C51.5039 23.5195 50.8594 25.0234 51.1328 25.9219C51.4063 26.8203 52.2266 27.1133 53.6133 26.8008C55 26.4883 56.543 25.5703 58.2813 24.0469C58.6328 23.6953 58.3984 23.3047 57.8516 23.7734C56.1914 24.9844 52.6953 26.9766 52.3047 25.8047C52.168 25.2383 52.2852 24.5937 52.6367 23.8711C52.9883 23.1289 53.3594 22.5039 53.75 21.9961C54.4922 21.0195 54.668 20.2383 54.2773 19.6328C53.8867 19.0273 53.1836 18.5 52.1484 18.0508C51.8164 17.8945 51.7969 17.7578 51.9531 17.4453C52.3242 16.5273 52.1484 15.8242 51.7383 15.3555C51.1719 14.9258 50.7031 14.8477 50.293 15.1016C49.8828 15.3555 49.707 15.8047 49.7266 16.4297C49.7852 16.8398 49.9805 17.2695 50.3516 17.7187ZM51.2891 16.957C51.2695 17.0156 51.2695 17.0547 51.25 17.1133C51.25 17.1914 51.25 17.2695 51.1914 17.2695C50.957 17.2695 50.6445 16.5078 50.6055 16.332C50.5664 15.0625 51.4453 16.0195 51.2891 16.957Z" fill="black"/>
<path d="M68.3398 20.1797C67.5586 20.7266 66.7969 21.293 66.0352 21.8789C63.6523 23.6953 61.3281 25.5898 59.043 27.543C58.75 27.8164 56.0742 30.1211 56.4258 28.2461C56.6406 27.1328 57.207 25.9414 58.125 24.6719C59.043 23.4023 60.0977 22.2695 61.3086 21.3125C62.5195 20.3359 63.6914 19.7305 64.8438 19.5156C65.5664 19.3594 65.7227 19.5937 65.8008 19.7891C65.8789 19.9258 65.957 20.0234 66.2109 19.9648C67.4805 19.7695 67.1875 18.5 66.0352 18.3437C64.5703 18.2461 63.0859 18.7539 61.5625 19.8477C60.0391 20.9414 58.7109 22.2891 57.5781 23.8711C56.4453 25.4531 55.7422 26.918 55.4688 28.2852C55.293 29.2031 55.4297 30.0039 56.5234 30.0039C56.9727 30.0234 57.7148 29.7109 58.7109 29.0469C59.707 28.4023 60.7813 27.6016 61.9336 26.6641C63.0859 25.7266 64.1016 24.8672 65 24.1055C65.7227 23.4805 66.2695 23.0312 66.6016 22.7773C66.6602 22.7383 66.7188 22.6797 66.7969 22.6211C67.2852 22.1914 68.2227 21.4492 67.6367 22.5234C67.4414 22.8945 67.2266 23.2461 66.9922 23.5977L64.1211 28.207C63.3594 29.3984 62.7148 30.1211 61.6992 31.1172C60.1953 32.6016 58.7891 34.1836 57.4805 35.8437C56.8359 36.6445 56.2305 37.582 55.625 38.6562C55.0195 39.7305 54.5898 40.7656 54.3359 41.7617C54.1211 42.9141 54.7656 43.3047 55.7617 42.6602C56.4648 42.0742 57.4609 40.7852 58.75 38.7734C60.0586 36.7812 61.25 34.8672 62.3438 33.0312C62.832 32.2305 63.2227 31.5859 63.5352 31.0586C64.1016 30.1797 64.6875 29.5937 65.5469 28.9687C65.7227 28.8125 65.7812 28.5586 65.625 28.3437L65.5859 28.3047C65.3906 28.0898 65.3711 27.9922 65.8398 27.25C66.3281 26.4492 66.7773 25.668 67.207 24.8867C67.4609 24.3984 67.7344 23.9297 68.0078 23.4414C68.0469 23.3633 68.0859 23.2852 68.1445 23.207C68.5938 22.4453 69.0039 21.6445 69.3359 20.8437C69.6289 20.3164 68.7305 20.0625 68.3398 20.1797ZM55.3711 41.8789C54.4336 42.1523 59.5508 33.9492 60.0586 34.3008C60.2734 34.457 59.6094 35.4531 59.3164 35.9023C59.2578 35.9805 59.2188 36.0391 59.1992 36.0781C59.1406 36.1758 59.0039 36.4102 58.8086 36.7617C57.9492 38.3047 56.0352 41.7031 55.3711 41.8789Z" fill="black"/>
<path d="M81.2891 23.3437C80.7617 23.6367 80.1367 23.8906 79.4141 24.1055C78.6914 24.3203 78.1445 24.3008 77.7539 24.0469C77.3828 23.793 77.4414 23.1484 77.9297 22.0742C78.0078 21.918 78.0078 21.7617 77.9102 21.6055C77.7539 21.3711 77.4805 21.332 77.2461 21.4687C75.0195 23.0117 73.418 24.0469 72.4414 24.6133C71.4648 25.1797 70.957 25.3945 70.8984 25.2578C70.8594 25.1211 71.1523 24.7695 71.7578 24.1836C72.3633 23.5781 73.125 22.9531 74.0039 22.2891C74.8828 21.625 75.7227 21.1367 76.5234 20.8242C77.3242 20.5117 77.8711 20.5703 78.2031 21.0195C78.2227 21.0781 78.1836 21.1172 78.1641 21.1758C78.1445 21.2344 78.1055 21.2734 78.1055 21.332C78.2422 21.5859 78.6328 21.8203 78.8867 21.7422C79.1406 21.6641 79.3359 21.4297 79.2578 21.1758C78.8281 20.1797 78.0859 19.75 77.0312 19.9258C75.9766 20.082 74.8633 20.5508 73.7109 21.3516C72.5586 22.1523 71.6211 22.9922 70.8984 23.8711C70.1758 24.75 69.9023 25.3945 70.1172 25.8047C70.293 26.0977 70.8398 26.0977 71.7773 25.7656C72.7344 25.4336 74.2188 24.6133 76.2305 23.3047C76.6016 23.0703 76.6211 23.0508 76.6016 23.4219V23.5195C76.6211 24.3984 76.9531 24.8867 77.5586 25.0039C78.1641 25.1016 78.8672 25.0234 79.6289 24.75C80.4102 24.457 81.0547 24.1641 81.543 23.8711C82.168 23.4219 81.9922 22.9727 81.2891 23.3437Z" fill="black"/>
<path d="M79.8633 26.1172C79.707 26.6641 80.1562 26.9375 80.6836 26.7031C81.3867 26.332 82.4609 25.4336 83.5742 24.4375C84.8438 23.2852 86.0352 22.2891 86.582 22.2305C86.4062 23.3437 86.5039 24.1445 86.875 24.6133C87.2461 25.0625 88.0273 24.9258 89.1992 24.1836C89.5508 23.9492 89.5117 23.3633 88.9844 23.6953C87.207 24.8867 87.2461 24.0469 87.3633 23.0508C87.4219 22.6016 87.4219 22.2109 87.3633 21.8594C87.3047 21.4883 87.0312 21.3125 86.5625 21.293C86.2695 21.3125 85.7617 21.5859 85.0586 22.0742C84.375 22.5625 83.6719 23.0898 82.9688 23.6562C82.2852 24.2227 81.7773 24.6523 81.4648 24.9453C81.9141 24.1445 82.4414 23.2461 83.0273 22.25C83.6328 21.2539 84.1602 20.3555 84.6484 19.5742C84.707 19.457 84.7461 19.3398 84.7461 19.2227V19.125C84.6875 18.9492 84.5703 18.8125 84.375 18.7539C84.2773 18.7148 84.1797 18.7148 84.0625 18.7539L84.0234 18.7734C83.8672 18.8125 83.6133 19.0078 83.2812 19.3789C83.125 19.5547 83.125 19.8086 83.2812 20.0234C83.0859 20.3555 82.8516 20.7266 82.5781 21.1758C82.0898 22.0156 81.582 22.875 81.0547 23.793C80.5273 24.7109 80.1172 25.4727 79.8633 26.1172Z" fill="black"/>
<path d="M109.551 26.8984C109.492 26.957 109.453 27.0352 109.434 27.0937C108.984 27.7969 109.004 27.7773 108.34 28.0312C108.223 28.0703 108.086 28.1289 107.93 28.1875C105.293 29.2227 102.52 30.2383 99.7656 30.9219C99.082 31.0781 99.1992 31.625 99.9023 31.5078C102.617 30.8633 105.273 30.043 107.891 29.0859C108.34 28.9102 108.301 28.9883 108.008 29.4766C106.875 31.3711 105.801 33.3047 104.805 35.2773C104.473 36.0781 104.98 36.3125 105.43 35.5508C106.27 33.9297 107.168 32.3477 108.164 30.8047C108.438 30.3555 108.711 29.9258 108.965 29.4961C109.023 29.3984 109.062 29.3203 109.121 29.2422C109.531 28.5195 109.648 28.4219 110.547 28.0703C113.008 27.1133 115.625 25.9805 118.379 24.6719C121.133 23.3633 123.789 21.8984 126.348 20.2969C128.906 18.6953 131.094 16.9961 132.93 15.1992C137.363 10.7266 139.18 3.57812 130.547 3.24609C127.988 3.18749 124.824 3.71484 121.055 4.82812C117.285 5.92187 113.672 7.34765 110.176 9.10546C106.699 10.8633 104.121 12.6992 102.461 14.6328C100.586 16.9766 101.191 18.8125 103.984 19.8086C105 20.082 105.234 18.793 104.414 18.0898C104.082 17.8555 104.004 17.9922 103.887 18.1875C103.809 18.3633 103.672 18.5195 103.359 18.3437C102.012 17.5039 102.246 16.4102 103.184 15.3164C104.766 13.4609 107.266 11.7031 110.684 10.0039C114.102 8.30468 117.637 6.91796 121.328 5.84374C125.02 4.76953 128.066 4.26171 130.508 4.30078C138.086 4.63281 136.055 10.7266 132.246 14.5547C130.527 16.2148 128.438 17.8164 125.996 19.3203C123.555 20.8242 121.035 22.2305 118.398 23.5195C115.762 24.8086 113.301 25.9414 111.016 26.9375C110.957 26.957 110.898 26.9961 110.84 27.0156C110.371 27.25 110.352 27.2109 110.586 26.8789C110.645 26.7812 110.723 26.6836 110.82 26.5469C112.773 23.5195 114.766 20.5117 116.797 17.5625C117.559 16.4492 118.32 15.3164 119.082 14.1836C119.102 14.125 119.16 14.0664 119.219 13.9687C119.688 13.2656 120.977 11.3125 120.703 10.9023C120.527 10.5898 120.215 10.3555 119.844 10.5898C118.926 11.1953 118.301 12.0156 117.969 13.0898C117.91 13.3437 117.949 13.4414 118.008 13.5C118.086 13.5781 118.105 13.6562 117.832 14.0469C114.922 18.2461 112.168 22.5234 109.551 26.8984Z" fill="black"/>
<path d="M123.438 37.4648C124.102 37.7969 124.766 36.4297 124.629 36.4297L132.383 23.793C132.734 23.207 132.793 23.168 132.988 23.0508C133.066 23.0117 133.223 22.9141 133.438 22.7578C134.59 21.7617 136.25 19.8281 138.398 16.918C140.566 14.0078 142.539 11.1172 144.316 8.24609C144.316 8.22656 144.316 8.22656 144.336 8.20703C144.492 7.95312 144.805 7.40624 145.293 6.5664C145.781 5.70703 146.25 4.78906 146.68 3.83203C147.129 2.85546 147.344 2.05468 147.344 1.44921C147.363 0.824213 146.973 0.628901 146.172 0.863276C145.664 1.09765 144.707 2.21093 143.32 4.20312C141.934 6.17578 140.41 8.51953 138.73 11.1953C137.051 13.8711 135.527 16.3516 134.16 18.6562C132.793 20.9414 131.895 22.5039 131.445 23.3437C129.746 26.0781 128.359 28.3242 127.266 30.0625C123.418 36.3125 122.832 37.1914 123.438 37.4648ZM134.609 20.1992C135.605 18.5781 136.602 16.8984 137.637 15.1602C140.059 11.0195 142.598 6.82031 145.195 3.22656C147.051 0.804682 146.621 2.38671 143.418 7.69921C142.07 9.86718 140.605 12.0937 139.023 14.3984C137.441 16.7031 135.996 18.6758 134.707 20.3164C134.238 20.8828 134.238 20.7656 134.609 20.1992Z" fill="black"/>
<path d="M139.336 22.2305C140.137 21.1953 139.824 20.9219 139.414 20.8828C139.102 20.8242 138.594 21.0391 138.34 21.4297C138.281 21.5273 138.223 21.625 138.164 21.7422C137.402 22.9531 135.859 25.4141 137.344 26.4102C137.637 26.5664 138.008 26.6445 138.418 26.625C139.57 26.5273 140.762 26.0781 141.992 25.2773C143.223 24.4766 144.297 23.6758 145.215 22.875C145.352 22.7773 145.469 22.6797 145.566 22.582C145.586 22.5625 145.605 22.5625 145.625 22.543C146.406 21.8594 146.543 21.8398 146.406 22.7578C146.016 25.8633 149.004 25.4141 151.719 24.0078C152.285 23.7344 152.285 23.1289 151.504 23.5195C149.102 24.5352 146.816 25.3555 147.617 21.918C147.754 21.4492 147.812 21.0586 147.793 20.7461C147.383 20.1016 146.055 20.9609 145.371 21.5664C145.234 21.6641 145.098 21.7812 144.922 21.918C144.004 22.6797 142.93 23.5 141.66 24.3789C140.391 25.2578 139.258 25.7461 138.262 25.8437C137.012 25.8437 138.34 23.3047 139.004 22.4062C139.023 22.3281 139.141 22.3086 139.219 22.2891C139.277 22.2695 139.316 22.25 139.336 22.2305Z" fill="black"/>
<path d="M159.023 25.1211C158.711 25.0625 159.629 22.6016 159.961 21.625C160.02 21.4492 160.078 21.332 160.098 21.2734C160.43 20.2773 160.332 19.6523 159.805 19.3984C158.691 19.0078 155.215 22.0352 152.656 24.2617C152.559 24.3398 152.48 24.418 152.383 24.4961C151.699 25.1016 151.484 25.2578 152.109 24.3203C152.324 23.9883 152.559 23.6367 152.793 23.2852C153.828 21.8203 154.746 20.3555 155.547 18.9102C156.133 17.1914 154.59 18.2461 154.355 18.4805C154.141 18.7148 154.082 18.9297 154.258 19.1055L154.277 19.125C154.336 19.1836 154.316 19.1836 154.297 19.2422C153.809 20.0039 153.32 20.7461 152.793 21.4883C151.777 22.875 150.879 24.3594 150.098 25.9414C149.805 26.5469 149.844 26.957 150.234 27.1719C150.762 27.3672 152.344 25.9805 153.066 25.2969C153.203 25.1992 153.301 25.1211 153.359 25.0625C153.418 25.0039 153.555 24.8672 153.77 24.6719C155.254 23.3633 159.766 19.1641 159.316 20.5312C159.258 20.707 159.16 20.9219 159.062 21.1758C158.457 22.6406 157.383 25.2773 158.809 25.8047C159.141 25.9023 159.59 25.7461 160.156 25.2969C160.723 24.8477 161.328 24.3203 161.934 23.7148C162.422 23.2266 162.871 22.8359 163.262 22.5039C163.281 22.4844 163.32 22.4648 163.34 22.4453C163.809 22.0547 163.906 21.9961 163.887 22.543C163.75 23.7344 163.926 24.5547 164.414 25.0234C164.98 25.5508 165.918 25.2187 167.852 24.0273C168.516 23.6367 168.184 23.207 167.637 23.5195C166.172 24.3984 165.312 24.7109 165.098 24.4961C164.863 24.2617 164.883 23.6758 164.961 23.0312C165.02 22.5234 165 22.0547 164.941 21.6445C164.883 21.2148 164.648 20.9609 164.219 20.9023C163.77 20.9219 163.203 21.2148 162.52 21.8203C161.855 22.4258 161.211 23.0508 160.586 23.7344C159.824 24.5352 159.238 25.1406 159.023 25.1211Z" fill="black"/>
<path d="M172.246 17.0156C171.934 16.9961 171.699 17.1914 171.68 17.4844C171.68 17.5039 171.621 17.543 171.523 17.5625C171.328 17.6797 170.996 17.8164 171.074 18.0312C171.465 18.9687 173.711 17.0937 172.246 17.0156ZM167.891 26.293C168.477 26.293 169.453 26.0977 170.801 25.707C172.168 25.3164 173.281 24.8867 174.121 24.418C174.629 24.0664 174.355 23.6367 173.945 23.8711C173.809 23.9492 173.418 24.1055 172.734 24.3594C172.07 24.5937 171.328 24.8086 170.527 25.0234C169.727 25.2383 169.082 25.3164 168.574 25.2578C168.086 25.1992 167.949 24.9258 168.164 24.418C168.457 23.832 168.887 23.1094 169.453 22.25C170.039 21.3711 170.586 20.5898 171.074 19.8867C171.094 19.8477 171.133 19.8086 171.152 19.7891C171.328 19.5547 171.484 19.3008 171.309 19.0078C170.957 18.4609 169.355 19.6133 169.668 20.1992C169.629 20.2383 169.59 20.2969 169.531 20.3945C168.672 21.5664 165.352 26.293 167.891 26.293Z" fill="black"/>
<path d="M172.402 26.1172C172.246 26.6641 172.695 26.9375 173.223 26.7031C173.926 26.332 175 25.4336 176.113 24.4375C177.383 23.2852 178.574 22.2891 179.121 22.2305C178.945 23.3437 179.043 24.1445 179.414 24.6133C179.785 25.0625 180.566 24.9258 181.738 24.1836C182.09 23.9492 182.051 23.3633 181.523 23.6953C179.746 24.8867 179.785 24.0469 179.902 23.0508C179.961 22.6016 179.961 22.2109 179.902 21.8594C179.844 21.4883 179.57 21.3125 179.102 21.293C178.809 21.3125 178.301 21.5859 177.598 22.0742C176.914 22.5625 176.211 23.0898 175.508 23.6562C174.824 24.2227 174.316 24.6523 174.004 24.9453C174.453 24.1445 174.98 23.2461 175.566 22.25C176.172 21.2539 176.699 20.3555 177.188 19.5742C177.246 19.457 177.285 19.3398 177.285 19.2227V19.125C177.227 18.9492 177.109 18.8125 176.914 18.7539C176.816 18.7148 176.719 18.7148 176.602 18.7539L176.562 18.7734C176.406 18.8125 176.152 19.0078 175.82 19.3789C175.664 19.5547 175.664 19.8086 175.82 20.0234C175.625 20.3555 175.391 20.7266 175.117 21.1758C174.629 22.0156 174.121 22.875 173.594 23.793C173.066 24.7109 172.656 25.4727 172.402 26.1172Z" fill="black"/>
<path d="M191.973 20.1797C191.191 20.7266 190.43 21.293 189.668 21.8789C187.285 23.6953 184.961 25.5898 182.676 27.543C182.383 27.8164 179.707 30.1211 180.059 28.2461C180.273 27.1328 180.84 25.9414 181.758 24.6719C182.676 23.4023 183.73 22.2695 184.941 21.3125C186.152 20.3359 187.324 19.7305 188.477 19.5156C189.199 19.3594 189.355 19.5937 189.434 19.7891C189.512 19.9258 189.59 20.0234 189.844 19.9648C191.113 19.7695 190.82 18.5 189.668 18.3437C188.203 18.2461 186.719 18.7539 185.195 19.8477C183.672 20.9414 182.344 22.2891 181.211 23.8711C180.078 25.4531 179.375 26.918 179.102 28.2852C178.926 29.2031 179.062 30.0039 180.156 30.0039C180.605 30.0234 181.348 29.7109 182.344 29.0469C183.34 28.4023 184.414 27.6016 185.566 26.6641C186.719 25.7266 187.734 24.8672 188.633 24.1055C189.355 23.4805 189.902 23.0312 190.234 22.7773C190.293 22.7383 190.352 22.6797 190.43 22.6211C190.918 22.1914 191.855 21.4492 191.27 22.5234C191.074 22.8945 190.859 23.2461 190.625 23.5977L187.754 28.207C186.992 29.3984 186.348 30.1211 185.332 31.1172C183.828 32.6016 182.422 34.1836 181.113 35.8437C180.469 36.6445 179.863 37.582 179.258 38.6562C178.652 39.7305 178.223 40.7656 177.969 41.7617C177.754 42.9141 178.398 43.3047 179.395 42.6602C180.098 42.0742 181.094 40.7852 182.383 38.7734C183.691 36.7812 184.883 34.8672 185.977 33.0312C186.465 32.2305 186.855 31.5859 187.168 31.0586C187.734 30.1797 188.32 29.5937 189.18 28.9687C189.355 28.8125 189.414 28.5586 189.258 28.3437L189.219 28.3047C189.023 28.0898 189.004 27.9922 189.473 27.25C189.961 26.4492 190.41 25.668 190.84 24.8867C191.094 24.3984 191.367 23.9297 191.641 23.4414C191.68 23.3633 191.719 23.2852 191.777 23.207C192.227 22.4453 192.637 21.6445 192.969 20.8437C193.262 20.3164 192.363 20.0625 191.973 20.1797ZM179.004 41.8789C178.066 42.1523 183.184 33.9492 183.691 34.3008C183.906 34.457 183.242 35.4531 182.949 35.9023C182.891 35.9805 182.852 36.0391 182.832 36.0781C182.773 36.1758 182.637 36.4102 182.441 36.7617C181.582 38.3047 179.668 41.7031 179.004 41.8789Z" fill="black"/>
</svg>
